<svg width="30" height="30" viewBox="0 0 30 30" fill="none" xmlns="http://www.w3.org/2000/svg">
<path d="M2.43569 13.5551L13.0629 7.19691C13.3258 7.03694 13.6269 6.95051 13.9346 6.94665C14.2423 6.94279 14.5454 7.02164 14.8123 7.17496C15.1018 7.34356 15.3415 7.58578 15.5072 7.87701C15.6728 8.16825 15.7584 8.49813 15.7553 8.83316V13.2811L25.9239 7.19522C26.1868 7.03525 26.4879 6.94882 26.7956 6.94496C27.1033 6.9411 27.4065 7.01995 27.6733 7.17327C27.9628 7.34187 28.2026 7.58409 28.3682 7.87533C28.5338 8.16656 28.6194 8.49645 28.6163 8.83147V21.2666C28.6196 21.6017 28.5341 21.9317 28.3684 22.2231C28.2028 22.5144 27.9629 22.7567 27.6733 22.9253C27.4065 23.0787 27.1033 23.1575 26.7956 23.1536C26.4879 23.1498 26.1868 23.0634 25.9239 22.9034L15.7553 16.8147V21.2643C15.759 21.5998 15.6736 21.9303 15.508 22.2221C15.3423 22.5139 15.1022 22.7565 14.8123 22.9253C14.5454 23.0787 14.2423 23.1575 13.9346 23.1536C13.6269 23.1498 13.3258 23.0634 13.0629 22.9034L2.43569 16.5452C2.18305 16.3869 1.97476 16.1671 1.83038 15.9062C1.68599 15.6454 1.61025 15.3522 1.61025 15.0541C1.61025 14.756 1.68599 14.4627 1.83038 14.2019C1.97476 13.9411 2.18305 13.7213 2.43569 13.563V13.5551Z" fill="#E1E1E6"/>
</svg>
