<svg width="29" height="30" viewBox="0 0 29 30" fill="none" xmlns="http://www.w3.org/2000/svg">
<g clip-path="url(#clip0_1_91)">
<path d="M27.2392 13.5551L16.6119 7.19691C16.349 7.03694 16.048 6.95051 15.7403 6.94665C15.4325 6.94279 15.1294 7.02164 14.8626 7.17496C14.5731 7.34356 14.3333 7.58578 14.1677 7.87701C14.002 8.16825 13.9164 8.49813 13.9196 8.83316V13.2811L3.75091 7.19522C3.488 7.03525 3.18696 6.94882 2.87923 6.94496C2.57151 6.9411 2.26839 7.01995 2.00155 7.17327C1.71203 7.34187 1.47227 7.58409 1.30664 7.87533C1.14101 8.16656 1.0554 8.49645 1.05851 8.83147V21.2666C1.0553 21.6017 1.14086 21.9317 1.3065 22.223C1.47213 22.5144 1.71194 22.7567 2.00155 22.9253C2.26839 23.0787 2.57151 23.1575 2.87923 23.1536C3.18696 23.1498 3.488 23.0634 3.75091 22.9034L13.9196 16.8147V21.2643C13.9159 21.5998 14.0013 21.9303 14.167 22.2221C14.3326 22.5138 14.5726 22.7565 14.8626 22.9253C15.1294 23.0787 15.4325 23.1575 15.7403 23.1536C16.048 23.1498 16.349 23.0634 16.6119 22.9034L27.2392 16.5452C27.4918 16.3869 27.7001 16.1671 27.8445 15.9062C27.9889 15.6454 28.0646 15.3522 28.0646 15.0541C28.0646 14.756 27.9889 14.4627 27.8445 14.2019C27.7001 13.9411 27.4918 13.7213 27.2392 13.563V13.5551Z" fill="#E1E1E6"/>
</g>
<defs>
<clipPath id="clip0_1_91">
<rect width="28.8089" height="28.8089" fill="white" transform="translate(0.157761 0.643784)"/>
</clipPath>
</defs>
</svg>
