<svg width="30" height="30" viewBox="0 0 30 30" fill="none" xmlns="http://www.w3.org/2000/svg">
<path d="M8.4179 25.4014C8.07243 25.4007 7.73308 25.3102 7.43322 25.1386C6.75801 24.756 6.33826 24.0133 6.33826 23.2069V6.8894C6.33826 6.08084 6.75801 5.34036 7.43322 4.95774C7.74022 4.7813 8.08897 4.69057 8.44303 4.69503C8.79708 4.69948 9.14344 4.79896 9.4459 4.98306L23.3918 13.3309C23.6824 13.5131 23.922 13.7662 24.0881 14.0664C24.2542 14.3666 24.3413 14.704 24.3413 15.047C24.3413 15.3901 24.2542 15.7275 24.0881 16.0277C23.922 16.3279 23.6824 16.581 23.3918 16.7632L9.44365 25.1133C9.13412 25.3004 8.77959 25.4 8.4179 25.4014Z" fill="#E1E1E6"/>
</svg>
